/* XPM */
static char * bam_xpm[] = 
{
"19 19 53 2",
"AA c #3D4226",
"AB c #463E30",
"AC c #4D570F",
"AD c #435213",
"AE c #4E5017",
"AF c #555415",
"AG c #505D17",
"AH c #5A5817",
"AI c #464721",
"AJ c #42462B",
"AK c #434A29",
"AL c #4F4D2B",
"AM c #4D4433",
"AN c #49512C",
"AO c #554A22",
"AP c #514B2D",
"AQ c #5D4B2D",
"AR c #524C35",
"AS c #545526",
"AT c #525229",
"AU c #526A04",
"AV c #596E05",
"AW c #506517",
"AX c #53621E",
"AY c #5C7302",
"AZ c #5F6125",
"BA c #674F30",
"BB c #64502C",
"BC c #6A502C",
"BD c #6E5829",
"BE c #725E2B",
"BF c #627601",
"BG c #657901",
"BH c #6E7B03",
"BI c #727D04",
"BJ c #7B7D00",
"BK c #7E741E",
"BL c #7D7A12",
"BM c #6B652C",
"BN c #78642D",
"BO c #786430",
"BP c #7D7221",
"BQ c #7A7A62",
"BR c #7E7E76",
"BS c #7E8001",
"BT c #807E0A",
"BU c #807B12",
"BV c #808000",
"BW c #808060",
"BX c #80807F",
"BY c #808080",
"BZ c #000000",
"CA c #FFFFFF",
"BWBYBYBYBYBYBYBYBYBYBYBYBYBYBYBYBYBYBY",
"BYBVBVBVBVBVBVBVBVBVBVBVBVBVBVBVBVBVBV",
"BYBVBVBVBVBVBVBVBVBVBVBVBVBVBVBVBVBVBV",
"BYBVBVBVBVBVBVBVBVBVBVBVBVBVBVBVBVBVBV",
"BYBVBVBVBVBVBVBVBVBVBVBVBVBVBVBVBVBVBV",
"BYBVBVBVBVBVBVBVBVBVBVBVBVBVBVBVBVBVBV",
"BXBNAKATALAVBJBUAMAVBSBVBOAABHBVBKABBG",
"BXBNAUBSBKACBJBEAXAEBJBSBNANAUBVBEAPBF",
"BXBNAKATAMAUBUAOBIBAAYBJBNAWAFBTAFBBBG",
"BXBNAUBJBUAOBMAJATARADBJBNAUBCAZAVBCBG",
"BXBNAKATAPAGAQBFBVBTAQBFBNAUBPAKBIBCBG",
"BYBJBVBVBSBSBSBVBJBVBVBJBVBSBVBVBVBVBV",
"BYBVBVBVBVBVBVBVBVBVBVBVBVBVBVBVBVBVBV",
"BYBVBVBVBVBVBVBVBVBVBVBVBVBVBVBVBVBVBV",
"BYBVBVBVBVBVBVBVBVBVBVBVBVBVBVBVBVBVBV",
"BYBVBVBVBVBVBVBVBVBVBVBVBVBVBVBVBVBVBV",
"BYBVBVBVBVBVBVBVBVBVBVBVBVBVBVBVBVBJBJ",
"BYBVBVBVBVBVBVBVBVBVBVBVBVBVBVBVBVBQBY",
"BYBVBVBVBVBVBVBVBVBVBVBVBVBVBVBVBJBYBR",
"XPMENDEXT"
};
