/* XPM */
static char * gff_xpm[] = 
{
"19 19 35 2",
"AA c #4E4E17",
"AB c #4B5D0C",
"AC c #4C5513",
"AD c #53541F",
"AE c #42472C",
"AF c #42482B",
"AG c #4F4F26",
"AH c #4E4E2B",
"AI c #515125",
"AJ c #515228",
"AK c #4D6307",
"AL c #5B6907",
"AM c #577003",
"AN c #6D5E27",
"AO c #6C5D28",
"AP c #715F26",
"AQ c #70582F",
"AR c #657502",
"AS c #6A7005",
"AT c #6D7A01",
"AU c #7C7C00",
"AV c #7F7A0F",
"AW c #7F7A16",
"AX c #75692B",
"AY c #79672A",
"AZ c #7A692B",
"BA c #7A7A62",
"BB c #7E7E76",
"BC c #7E8000",
"BD c #807F06",
"BE c #808000",
"BF c #808060",
"BG c #808080",
"BH c #000000",
"BI c #FFFFFF",
"BFBGBGBGBGBGBGBGBGBGBGBGBGBGBGBGBGBGBG",
"BGBDBDBDBDBDBDBDBDBDBDBDBDBDBDBDBDBDBD",
"BGBDBDBDBDBDBDBDBDBDBDBDBDBDBDBDBDBDBD",
"BGBDBDBDBDBDBDBDBDBDBDBDBDBDBDBDBDBDBD",
"BGBDBDBDBDBDBDBDBDBDBDBDBDBDBDBDBDBDBD",
"BGBDBDBDBDBDBDBDBDBDBDBDBDBDBDBDBDBDBD",
"BGBDBDANAIADAIARAZAFAIAIALAZAFAIAIALBC",
"BGBDAZAKBCBCAVASAZAKBCBCBCAZAKBCBCBCBD",
"BGBCAQAMAUAPAJACAXAFAIADATAZAFAIADATBD",
"BGBDAYABBCBDAWACAXAKBCBDBDAZAKBCBDBDBD",
"BGAUBDANAHAIAGALAZAKBCBDBDAZAKBCBDBDBD",
"BGBDBCAUBDBCBDBDBDBDBDBDBDBCBDBCBDBDBD",
"BGBDBDBDBDBDBDBDBDBDBDBDBDBDBDBDBDBDBD",
"BGBDBDBDBDBDBDBDBDBDBDBDBDBDBDBDBDBDBD",
"BGBDBDBDBDBDBDBDBDBDBDBDBDBDBDBDBDBDBD",
"BGBDBDBDBDBDBDBDBDBDBDBDBDBDBDBDBDBDBD",
"BGBDBDBDBDBDBDBDBDBDBDBDBDBDBDBDBDBCAU",
"BGBDBDBDBDBDBDBDBDBDBDBDBDBDBDBEBDBABG",
"BGBDBDBDBDBDBDBDBDBDBDBDBDBDBEBEBCBGBB",
"XPMENDEXT"
};
