/* XPM */
static const char *hongqi_[] = {
/* columns rows colors chars-per-pixel */
"45 24 109 2",
"   c #E30409",
".  c #E60E0F",
"X  c #E51B05",
"o  c #E7120A",
"O  c #EC130E",
"+  c #E2190F",
"@  c #FF0516",
"#  c #F10C11",
"$  c #F50B16",
"%  c #F60A16",
"&  c #FA0814",
"*  c #F60518",
"=  c #FA041B",
"-  c #FA071B",
";  c #F8001C",
":  c #FD031C",
">  c #F9071D",
",  c #F9071F",
"<  c #FC041C",
"1  c #FC061D",
"2  c #FD051F",
"3  c #FC061F",
"4  c #F7081B",
"5  c #F7081D",
"6  c #F9081B",
"7  c #EB1018",
"8  c #FC101A",
"9  c #CE3000",
"0  c #C33E00",
"q  c #D63100",
"w  c #E22708",
"e  c #E6300B",
"r  c #D21535",
"t  c #F70720",
"y  c #FA0121",
"u  c #FF0021",
"i  c #FF0220",
"p  c #FF0320",
"a  c #FE0322",
"s  c #FB0421",
"d  c #FA0620",
"f  c #F90622",
"g  c #FA0622",
"h  c #FC0520",
"j  c #FD0520",
"k  c #FE0420",
"l  c #FF0420",
"z  c #FD0422",
"x  c #FC0522",
"c  c #FE0523",
"v  c #FC0225",
"b  c #FE0324",
"n  c #FF0126",
"m  c #FE0027",
"M  c #FF0127",
"N  c #FD0424",
"B  c #FC0524",
"V  c #F20A20",
"C  c #F60820",
"Z  c #F80A24",
"A  c #F90029",
"S  c #FC0029",
"D  c #FD0029",
"F  c #FF002A",
"G  c #FF002B",
"H  c #FA0628",
"J  c #FF0528",
"K  c #FF042A",
"L  c #FF002F",
"P  c #FF0A2C",
"I  c #FF0C2C",
"U  c #F41122",
"Y  c #FF1124",
"T  c #FF0431",
"R  c #FC0134",
"E  c #FF0036",
"W  c #FF3624",
"Q  c #EF5608",
"!  c #F34810",
"~  c #ED680B",
"^  c #FA6F14",
"/  c #FF701D",
"(  c #FF482D",
")  c #FF6A2D",
"_  c #FF4C43",
"`  c #FF5747",
"'  c #FF5A56",
"]  c #FF6045",
"[  c #E98400",
"{  c #FF931D",
"}  c #FAB210",
"|  c #FF8825",
" . c #FF9C27",
".. c #FF9B3D",
"X. c #FFA434",
"o. c #FFA73A",
"O. c #FFAF3C",
"+. c #F1DC05",
"@. c #F7D60B",
"#. c #FBD50E",
"$. c #FFCE17",
"%. c #FFCA1E",
"&. c #FFD514",
"*. c #F8DB11",
"=. c #FFDC19",
"-. c #FF9E59",
";. c #FCFAFF",
":. c #FFFDFF",
">. c gray100",
/* pixels */
";.r , z z z z z z z z z z z z z z z z z z z z z z z z z z z z z z z z z z z z z z z z z :.",
":.r , z z z z z z z z z z z z z z z z z z z z z z z z z z z z z z z z z z z z z z z z z :.",
":.r , z z z & L 6 , p ` O.8 G z z z z z z z z z z z z z z z z z z z z z z z z z z z z z :.",
":.r , z z z m + L , G ] | # H z z z z z z z z z z z z z z z z z z z z z z z z z z z z z :.",
":.r , d t z . *.A p , 2 * G ! / $ C z z z z z z z z z z z z z z z z z z z z z z z z z z :.",
":.r , _  ...&.$.} X.o.  z : X ~ U 2 z z z z z z z z z z z z z z z z z z z z z z z z z z :.",
":.r , 7 K ^ @.+.&.q R R m $ m - d 2 z z z z z z z z z z z z z z z z z z z z z z z z z z :.",
":.r , G Y { %.0 =.9 @ V z s Q [ O z z z z z z z z z z z z z z z z z z z z z z z z z z z :.",
":.r , z I w N p N ( C d * I ' W d d z z z z z z z z z z z z z z z z z z z z z z z z z z :.",
":.r , 2 p p z z z , ; ) -.2 2 2 p p z z z z z z z z z z z z z z z z z z z z z z z z z z :.",
":.r , z z z z z z N v o e d 5 N z z z z z z z z z z z z z z z z z z z z z z z z z z z z :.",
":.r , z z z z z z z z N K m , z z z z z z z z z z z z z z z z z z z z z z z z z z z z z :.",
":.r , z z z z z z z z z z 2 z z z z z z z z z z z z z z z z z z z z z z z z z z z z z z :.",
":.r , z z z z z z z z z z z z z z z z z z z z z z z z z z z z z z z z z z z z z z z z z :.",
":.r , z z z z z z z z z z z z z z z z z z z z z z z z z z z z z z z z z z z z z z z z z :.",
":.r , z z z z z z z z z z z z z z z z z z z z z z z z z z z z z z z z z z z z z z z z z :.",
":.r , z z z z z z z z z z z z z z z z z z z z z z z z z z z z z z z z z z z z z z z z z :.",
":.r , z z z z z z z z z z z z z z z z z z z z z z z z z z z z z z z z z z z z z z z z z :.",
":.r , z z z z z z z z z z z z z z z z z z z z z z z z z z z z z z z z z z z z z z z z z :.",
":.r , z z z z z z z z z z z z z z z z z z z z z z z z z z z z z z z z z z z z z z z z z :.",
":.r , z z z z z z z z z z z z z z z z z z z z z z z z z z z z z z z z z z z z z z z z z :.",
":.r , z z z z z z z z z z z z z z z z z z z z z z z z z z z z z z z z z z z z z z z z z :.",
":.r , z z z z z z z z z z z z z z z z z z z z z z z z z z z z z z z z z z z z z z z z z :.",
":.:.:.:.:.:.:.:.:.:.:.:.:.:.:.:.:.:.:.:.:.:.:.:.:.:.:.:.:.:.:.:.:.:.:.:.:.:.:.:.:.:.:.:.:."
};
