/* XPM */
static char * mHome_folder_xpm[] = 
{
"19 19 14 1",
"A c #B3B300",
"B c #B7B712",
"C c #B9B913",
"D c #BABA1A",
"E c #C3C335",
"F c #C5C53C",
"G c #CDCD57",
"H c #CFCF5F",
"I c #DCDC8A",
"J c #E1E19A",
"K c #F9F9EB",
"L c #FFFFFF",
"M c #000000",
"N c #FFFFFF",
"AAAAAAAAAGKLLLLLLLL",
"AAAAAAAAACILLLLLLLL",
"AAAAAAAAAEGLLLLLLLL",
"AAAAAAAAAFHLLLLLLLL",
"ABCCCDDCCDFJJJJJJJJ",
"AAAAAAAAAAAAAAAAAAA",
"AAAAAAAAAAAAAAAAAAA",
"AAAAAAAAAAAAAAAAAAA",
"AAAAAAAAAAAAAAAAAAA",
"AAAAAAAAAAAAAAAAAAA",
"AAAAAAAAAAAAAAAAAAA",
"AAAAAAAAAAAAAAAAAAA",
"AAAAAAAAAAAAAAAAAAA",
"AAAAAAAAAAAAAAAAAAA",
"AAAAAAAAAAAAAAAAAAA",
"AAAAAAAAAAAAAAAAAAA",
"AAAAAAAAAAAAAAAAAAA",
"AAAAAAAAAAAAAAAAAAA",
"AAAAAAAAAAAAAAAAAAA",
"XPMENDEXT"
};
