/* XPM */
static char * vcf_xpm[] = 
{
"19 19 46 2",
"AA c #4E5F0A",
"AB c #4F5614",
"AC c #525516",
"AD c #53541F",
"AE c #42472C",
"AF c #42482B",
"AG c #4F5227",
"AH c #5B4E21",
"AI c #544633",
"AJ c #515227",
"AK c #525229",
"AL c #4D6307",
"AM c #4D6109",
"AN c #576E03",
"AO c #596807",
"AP c #566717",
"AQ c #5C7103",
"AR c #634E2B",
"AS c #66512A",
"AT c #67582B",
"AU c #695B28",
"AV c #70582C",
"AW c #657609",
"AX c #647801",
"AY c #6A7701",
"AZ c #6D7A01",
"BA c #776A1A",
"BB c #737D01",
"BC c #7B7D00",
"BD c #7E741D",
"BE c #7F7B12",
"BF c #766523",
"BG c #75642A",
"BH c #78662B",
"BI c #7B6B27",
"BJ c #7B6A2B",
"BK c #7A7A62",
"BL c #7E7E76",
"BM c #7E8000",
"BN c #807F07",
"BO c #807E09",
"BP c #808000",
"BQ c #808060",
"BR c #808080",
"BS c #000000",
"BT c #FFFFFF",
"BQBRBRBRBRBRBRBRBRBRBRBRBRBRBRBRBRBRBR",
"BRBPBPBPBPBPBPBPBPBPBPBPBPBPBPBPBPBPBP",
"BRBPBPBPBPBPBPBPBPBPBPBPBPBPBPBPBPBPBP",
"BRBPBPBPBPBPBPBPBPBPBPBPBPBPBPBPBPBPBP",
"BRBPBPBPBPBPBPBPBPBPBPBPBPBPBPBPBPBPBP",
"BRBPBPBPBPBPBPBPBPBPBPBPBPBPBPBPBPBPBP",
"BRBOARAXBPBNASAWAUAJAKABBBBJAEAKAKAQBC",
"BRBPBIAABMBDABBGAMBMBMBAAYBJALBMBCBNBC",
"BRBPBOAHBBAUAXAVANBMBPBPBPBJAFAKADAZBN",
"BRBNBNBFAPADBCBGAMBCBPBFAQBJALBCBPBNBN",
"BRBPBNBOAIANBCBOAVAGAKADBBBJALBMBPBPBP",
"BRBPBCBNBNBNBNBCBMBCBPBMBPBCBPBNBPBPBP",
"BRBPBPBNBNBNBNBNBPBPBPBPBPBPBPBPBPBPBP",
"BRBPBPBNBNBNBNBNBPBPBPBPBPBPBPBPBPBPBP",
"BRBPBPBPBPBPBPBPBPBPBPBPBPBPBPBPBPBPBP",
"BRBPBPBPBPBPBPBPBPBPBPBPBPBPBPBPBPBPBP",
"BRBPBPBPBPBPBPBPBPBPBPBPBPBPBPBPBPBCBC",
"BRBPBPBPBPBPBPBPBPBPBPBPBPBPBPBPBPBKBR",
"BRBPBPBPBPBPBPBPBPBPBPBPBPBPBPBPBCBRBL",
"XPMENDEXT"
};
