/* XPM */
static char * my_folder[] = 
{
"96 96 34 2",
"AA c #000000",
"AB c #0B0B0B",
"AC c #131313",
"AD c #1B1B1B",
"AE c #232323",
"AF c #2B2B2B",
"AG c #333333",
"AH c #3B3B3B",
"AI c #444444",
"AJ c #4A4A4A",
"AK c #525252",
"AL c #5B5B5B",
"AM c #646464",
"AN c #6C6C6C",
"AO c #737373",
"AP c #7B7B7B",
"AQ c #838383",
"AR c #8B8B8B",
"AS c #939393",
"AT c #9A9A9A",
"AU c #A3A3A3",
"AV c #AAAAAA",
"AW c #B2B2B2",
"AX c #BCBCBC",
"AY c #C3C3C3",
"AZ c #CACACA",
"BA c #D3D3D3",
"BB c #DCDCDC",
"BC c #E4E4E4",
"BD c #ECECEC",
"BE c #F2F2F2",
"BF c #FEFEFE",
"BG c #000000",
"BH c #FFFFFF",
"BFBFBFBFBFBFBFBFBFBFBFBFBFBFBFBFBFBFBFBFBFBFBFBFBFBFBFBFBFBFBFBFBFBFBFBFBFBFBFBFBFBFBFBFBFBFBFBFBFBFBFBFBFBFBFBFBFBFBFBFBFBFBFBFBFBFBFBFBFBFBFBFBFBFBFBFBFBFBFBFBFBFBFBFBFBFBFBFBFBFBFBFBFBFBFBF",
"BFBFBFBFBFBFBFBFBFBFBFBFBFBFBFBFBFBFBFBFBFBFBFBFBFBFBFBFBFBFBFBFBFBFBFBFBFBFBFBFBFBFBFBFBFBFBFBFBFBFBFBFBFBFBFBFBFBFBFBFBFBFBFBFBFBFBFBFBFBFBFBFBFBFBFBFBFBFBFBFBFBFBFBFBFBFBFBFBFBFBFBFBFBFBFBF",
"BFBFBFBFBFBFBFBFBFBFBFBFBFBFBFBFBFBFBFBFBFBFBFBFBFBFBFBFBFBFBFBFBFBFBFBFBFBFBFBFBFBFBFBFBFBFBFBFBFBFBFBFBFBFBFBFBFBFBFBFBFBFBFBFBFBFBFBFBFBFBFBFBFBFBFBFBFBFBFBFBFBFBFBFBFBFBFBFBFBFBFBFBFBFBFBF",
"BFBFBFBFBFBFBFBFBFBFBFBFBFBFBFBFBFBFBFBFBFBFBFBFBFBFBFBFBFBFBFBFBFBFBFBFBFBFBFBFBFBFBFBFBFBFBFBFBFBFBFBFBFBFBFBFBFBFBFBFBFBFBFBFBFBFBFBFBFBFBFBFBFBFBFBFBFBFBFBFBFBFBFBFBFBFBFBFBFBFBFBFBFBFBFBF",
"ATANAMAOAPAPAQARATATATATATATATATATATATATATATATATATATATATATATAWBBBFBFBFBFBFBFBFBFBFBFBFBFBFBFBFBFBFBFBFBFBFBFBFBFBFBFBFBFBFBFBFBFBFBFBFBFBFBFBFBFBFBFBFBFBFBFBFBFBFBFBFBFBFBFBFBFBFBFBFBFBFBFBFBF",
"AAAAAAAAAAAAAAAAAAAAAAAAAAAAAAAAAAAAAAAAAAAAAAAAAAAAAAAAAAAAAAAAAAAHBBBFBFBFBFBFBFBFBFBFBFBFBFBFBFBFBFBFBFBFBFBFBFBFBFBFBFBFBFBFBFBFBFBFBFBFBFBFBFBFBFBFBFBFBFBFBFBFBFBFBFBFBFBFBFBFBFBFBFBFBFBF",
"AAAAAAAAAAAAAAAAAAAAAAAAAAAAAAAAAAAAAAAAAAAAAAAAAAAAAAAAAAAAAAAAAAAAAAAAAJBBBFBFBFBFBFBFBFBFBFBFBFBFBFBFBFBFBFBFBFBFBFBFBFBFBFBFBFBFBFBFBFBFBFBFBFBFBFBFBFBFBFBFBFBFBFBFBFBFBFBFBFBFBFBFBFBFBFBF",
"AAAAAAAAAAAAAAAAAAAAAAAAAAAAAAAAAAAAAAAAAAAAAAAAAAAAAAAAAAAAAAAAAAAAAAAAAAAAAEBDBFBFBFBFBFBFBFBFBFBFBFBFBFBFBFBFBFBFBFBFBFBFBFBFBFBFBFBFBFBFBFBFBFBFBFBFBFBFBFBFBFBFBFBFBFBFBFBFBFBFBFBFBFBFBFBF",
"AAAAAAAAAAAAAAAAAAAAAAAAAAAAAAAAAAAAAAAAAAAAAAAAAAAAAAAAAAAAAAAAAAAAAAAAAAAAAAAUBFBFBFBFBFBFBFBFBFBFBFBFBFBFBFBFBFBFBFBFBFBFBFBFBFBFBFBFBFBFBFBFBFBFBFBFBFBFBFBFBFBFBFBFBFBFBFBFBFBFBFBFBFBFBFBF",
"AAAAAAAAAAAAAAAAAAAAAAAAAAAAAAAAAAAAAAAAAAAAAAAAAAAAAAAAAAAAAAAAAAAAAAAAAAAAAAASBFBFBFBFBFBFBFBFBFBFBFBFBFBFBFBFBFBFBFBFBFBFBFBFBFBFBFBFBFBFBFBFBFBFBFBFBFBFBFBFBFBFBFBFBFBFBFBFBFBFBFBFBFBFBFBF",
"AAAAAAAAAAAAAAAAAAAAAAAAAAAAAAAAAAAAAAAAAAAAAAAAAAAAAAAAAAAAAAAAAAAAAAAAAAAAAAASBFBFBFBFBFBFBFBFBFBFBFBFBFBFBFBFBFBFBFBFBFBFBFBFBFBFBFBFBFBFBFBFBFBFBFBFBFBFBFBFBFBFBFBFBFBFBFBFBFBFBFBFBFBFBFBF",
"AAAAAAAAAAAAAAAAAAAAAAAAAAAAAAAAAAAAAAAAAAAAAAAAAAAAAAAAAAAAAAAAAAAAAAAAAAAAAAASBFBFBFBFBFBFBFBFBFBFBFBFBFBFBFBFBFBFBFBFBFBFBFBFBFBFBFBFBFBFBFBFBFBFBFBFBFBFBFBFBFBFBFBFBFBFBFBFBFBFBFBFBFBFBFBF",
"AAAAAAAAAAAAAAAAAAAAAAAAAAAAAAAAAAAAAAAAAAAAAAAAAAAAAAAAAAAAAAAAAAAAAAAAAAAAAAASBFBFBFBFBFBFBFBFBFBFBFBFBFBFBFBFBFBFBFBFBFBFBFBFBFBFBFBFBFBFBFBFBFBFBFBFBFBFBFBFBFBFBFBFBFBFBFBFBFBFBFBFBFBFBFBF",
"AAAAAAAAAAAAAAAAAAAAAAAAAAAAAAAAAAAAAAAAAAAAAAAAAAAAAAAAAAAAAAAAAAAAAAAAAAAAAAASBFBFBFBFBFBFBFBFBFBFBFBFBFBFBFBFBFBFBFBFBFBFBFBFBFBFBFBFBFBFBFBFBFBFBFBFBFBFBFBFBFBFBFBFBFBFBFBFBFBFBFBFBFBFBFBF",
"AAAAAAAAAAAAAAAAAAAAAAAAAAAAAAAAAAAAAAAAAAAAAAAAAAAAAAAAAAAAAAAAAAAAAAAAAAAAAAASBFBFBFBFBFBFBFBFBFBFBFBFBFBFBFBFBFBFBFBFBFBFBFBFBFBFBFBFBFBFBFBFBFBFBFBFBFBFBFBFBFBFBFBFBFBFBFBFBFBFBFBFBFBFBFBF",
"AAAAAAAAAAAAAAAAAAAAAAAAAAAAAAAAAAAAAAAAAAAAAAAAAAAAAAAAAAAAAAAAAAAAAAAAAAAAAAAQBFBFBFBFBFBFBFBFBFBFBFBFBFBFBFBFBFBFBFBFBFBFBFBFBFBFBFBFBFBFBFBFBFBFBFBFBFBFBFBFBFBFBFBFBFBFBFBFBFBFBFBFBFBFBFBF",
"AAAAAAAAAAAAAAAAAAAAAAAAAAAAAAAAAAAAAAAAAAAAAAAAAAAAAAAAAAAAAAAAAAAAAAAAAAAAAAAPBFBFBFBFBFBFBFBFBFBFBFBFBFBFBFBFBFBFBFBFBFBFBFBFBFBFBFBFBFBFBFBFBFBFBFBFBFBFBFBFBFBFBFBFBFBFBFBFBFBFBFBFBFBFBFBF",
"AAAAAAAAAAAAAAAAAAAAAAAAAAAAAAAAAAAAAAAAAAAAAAAAAAAAAAAAAAAAAAAAAAAAAAAAAAAAAAAQBFBFBFBFBFBFBFBFBFBFBFBFBFBFBFBFBFBFBFBFBFBFBFBFBFBFBFBFBFBFBFBFBFBFBFBFBFBFBFBFBFBFBFBFBFBFBFBFBFBFBFBFBFBFBFBF",
"AAAAAAAAAAAAAAAAAAAAAAAAAAAAAAAAAAAAAAAAAAAAAAAAAAAAAAAAAAAAAAAAAAAAAAAAAAAAAAAPBFBFBFBFBFBFBFBFBFBFBFBFBFBFBFBFBFBFBFBFBFBFBFBFBFBFBFBFBFBFBFBFBFBFBFBFBFBFBFBFBFBFBFBFBFBFBFBFBFBFBFBFBFBFBFBF",
"AAAAAAAAAAAAAAAAAAAAAAAAAAAAAAAAAAAAAAAAAAAAAAAAAAAAAAAAAAAAAAAAAAAAAAAAAAAAAAAAAAAAAAAAAAAAAAAAAAAAAAAAAAAAAAAAAAAAAAAAAAAAAAAAAAAAAAAAAAAAAAAAAAAAAAAAAAAAAAAAAAAAAAAAAAAAAAAAAAAAAAAAAAAAAAAA",
"AAAAAAAAAAAAAAAAAAAAAAAAAAAAAAAAAAAAAAAAAAAAAAAAAAAAAAAAAAAAAAAAAAAAAAAAAAAAAAAAAAAAAAAAAAAAAAAAAAAAAAAAAAAAAAAAAAAAAAAAAAAAAAAAAAAAAAAAAAAAAAAAAAAAAAAAAAAAAAAAAAAAAAAAAAAAAAAAAAAAAAAAAAAAAAAA",
"AAABAAABABABAAABABAAABABAAABABAAABABAAABABAAABABAAABABAAABABAAABABAAABABAAABABAAABABAAABABAAABABAAABABAAABABAAABABAAABABAAABABAAABABAAABABAAABABAAABABAAABABAAABABAAABABAAABABAAABABAAABABAAABAA",
"AAABABABABABABABABABABABABABABABABABABABABABABABABABABABABABABABABABABABABABABABABABABABABABABABABABABABABABABABABABABABABABABABABABABABABABABABABABABABABABABABABABABABABABABABABABABABABABABAB",
"AAABABABABABABABABABABABABABACABABABABABABABABABABABABABABABABABABABABABABABABABABABABABABABABABABABABABABABABABABABABABABABABABABABABABABABABABABABABABABABABABABABABABABABABABABABABABABABABAB",
"AAACACACACACACACACACACACACACACACACACACACACACACACACACACACACACACACACACACACACACACACACACACACACACACACACACACACACACACACACACACACACACACACACACACACACACACACACACACACACACACACACACACACACACACACACACACACACACACAC",
"AAACACACACACACACACACACACACACACACACACACACACACACACACACACACACACACACACACACACACACACACACACACACACACACACACACACACACACACACACACACACACACACACACACACACACACACACACACACACACACACACACACACACACACACACACACACACACACACAC",
"AAACADACADADACADADADADADADADACADADACADADACADADACADACADACADADACADADACADADACADADACADADACADADACADADACADADACADADACADADACADACADACACADACACADACACADACACADACACADACACADACACADACACADACACADACACADACACACADAC",
"AAADADADADADADADADADADADADADADADADADADADADADADADADADADADADADADADADADADADADADADADADADADADADADADADADADADADADADADADADADADADADADADADADADADADADADADADADADADADADADADADADADADADADADADADADADADADADADADAD",
"AAADAEADAEADADAEADADADADADADAEADAEADADADAEADADAEADAEADADAEADADAEADADAEADADAEADADAEADADAEADADAEADADAEADADAEADADAEADADAEADADAEADADAEADADAEADADAEADADAEADADAEADADAEADADAEADADAEADADAEADADAEADAEADAD",
"AAAEAEAEAEAEAEAEAEAEAEAEAEAEADAEAEAEAEAEAEAEAEADAEAEAEAEADAEAEADAEAEADAEAEADAEAEADAEAEADAEAEADAEAEADAEAEADAEAEADAEAEADAEAEADAEAEADAEAEADAEAEADAEAEADAEAEADAEAEADAEAEADAEAEADAEAEADAEAEAEAEADAEAE",
"AAAEAEAEAEAEAEAEAEAEAEAEAEAEAFAEAEAEAEAEAEAEAEAFAEAEAEAEAFAEAEAFAEAEAFAEAEAFAEAEAEAEAEAEAEAEAEAEAEAEAEAEAEAEAEAEAEAEAEAEAEAEAEAEAEAEAEAEAEAEAEAEAEAEAEAEAEAEAEAEAEAEAEAEAEAEAEAEAEAEAEAEAEAEAEAE",
"AAAFAFAFAFAFAFAFAFAFAFAFAFAFAEAFAFAFAFAFAEAFAFAEAFAEAFAFAEAFAFAEAFAFAEAFAFAEAFAFAFAFAFAFAFAFAFAFAFAFAFAFAFAFAFAFAFAFAFAFAFAFAFAFAFAFAFAFAFAFAFAFAFAFAFAFAFAFAFAFAFAFAFAFAFAFAFAFAFAFAEAFAFAFAEAF",
"AAAFAFAFAFAFAFAFAFAFAFAFAFAFAFAFAFAFAFAFAFAFAFAFAFAFAFAFAFAFAFAFAFAFAFAFAFAFAFAFAFAFAFAFAFAFAFAFAFAFAFAFAFAFAFAFAFAFAFAFAFAFAFAFAFAFAFAFAFAFAFAFAFAFAFAFAFAFAFAFAFAFAFAFAFAFAFAFAFAFAFAFAFAFAFAF",
"AAAFAFAFAFAFAFAFAFAFAFAFAFAFAFAFAFAFAFAFAFAFAFAFAFAFAFAFAFAFAFAFAFAFAFAFAFAFAFAFAFAFAFAFAFAFAFAFAFAFAFAFAFAFAFAFAFAFAFAFAFAFAFAFAFAFAFAFAFAFAFAFAFAFAFAFAFAFAFAFAFAFAFAFAFAFAFAFAFAFAGAFAFAFAGAF",
"AAAGAGAGAGAGAGAGAGAGAGAGAGAGAGAGAGAGAGAGAGAGAGAGAGAGAGAGAGAGAGAGAGAGAGAGAGAGAGAGAGAGAGAGAGAGAGAGAGAGAGAGAGAGAGAGAGAGAGAGAGAGAGAGAGAGAGAGAGAGAGAGAGAGAGAGAGAGAGAGAGAGAGAGAGAGAGAGAGAGAGAGAGAGAGAG",
"AAAGAGAGAGAGAGAGAGAGAGAGAGAGAGAGAGAGAGAGAGAGAGAGAGAGAGAGAGAGAGAGAGAGAGAGAGAGAGAGAGAGAGAGAGAGAGAGAGAGAGAGAGAGAGAGAGAGAGAGAGAGAGAGAGAGAGAGAGAGAGAGAGAGAGAGAGAGAGAGAGAGAGAGAGAGAGAGAGAGAGAGAGAGAGAG",
"AAAHAGAHAHAGAHAHAGAHAHAGAHAHAHAHAHAHAHAHAHAHAHAHAHAHAHAHAHAHAHAHAHAHAHAHAHAHAHAHAHAHAHAHAHAHAHAHAHAHAHAHAHAHAHAHAHAHAHAHAHAHAHAHAHAHAHAHAHAHAHAHAHAHAHAHAHAHAHAHAHAHAHAHAHAHAHAHAHAHAHAHAHAHAHAG",
"AAAHAHAHAHAHAHAHAHAHAHAHAHAHAHAHAHAHAHAHAHAHAHAHAHAHAHAHAHAHAHAHAHAHAHAHAHAHAHAHAHAHAHAHAHAHAHAHAHAHAHAHAHAHAHAHAHAHAHAHAHAHAHAHAHAHAHAHAHAHAHAHAHAHAHAHAHAHAHAHAHAHAHAHAHAHAHAHAHAHAHAHAHAHAHAH",
"AAAIAHAIAIAHAIAIAHAIAHAIAHAHAHAHAHAHAHAHAHAHAHAHAHAHAHAHAHAHAHAHAHAHAHAHAHAHAHAHAHAHAHAHAHAHAHAHAHAHAHAHAHAHAHAHAHAHAHAHAIAHAHAHAIAHAHAHAIAHAHAHAIAHAHAHAIAHAHAHAIAHAHAHAIAHAHAHAIAHAHAHAIAHAHAI",
"AAAIAIAHAIAIAIAHAIAIAIAHAIAIAIAIAIAIAIAIAIAIAIAIAIAIAIAIAIAIAIAIAIAIAIAIAIAIAIAIAIAIAIAIAIAIAIAIAIAIAIAIAIAIAIAIAIAIAIAIAIAIAIAIAHAIAIAIAIAIAIAIAHAIAIAIAIAIAIAIAHAIAIAIAIAIAIAIAHAIAIAIAIAIAIAI",
"AAAIAIAIAIAIAIAJAIAIAIAIAJAIAIAIAIAIAIAIAIAIAIAIAIAIAIAIAIAIAIAIAIAIAIAIAIAIAIAIAIAIAIAIAIAIAIAIAIAIAIAIAIAIAIAIAIAIAIAIAIAIAIAIAJAIAIAIAIAIAIAIAJAIAIAIAIAIAIAIAJAIAIAIAIAIAIAIAJAIAIAIAIAIAIAI",
"AAAJAJAJAJAIAJAIAJAJAJAJAJAJAJAJAJAJAJAJAJAJAJAJAJAJAJAJAJAJAJAJAJAJAJAJAJAJAJAJAJAJAJAJAJAJAJAJAJAJAJAJAJAJAJAJAJAJAJAJAJAIAJAJAIAJAJAJAIAJAJAJAIAJAJAJAIAJAJAJAIAJAJAJAIAJAJAJAIAJAJAJAIAJAJAI",
"AAAJAJAJAJAJAJAJAJAJAJAJAJAJAJAJAJAJAJAJAJAJAJAJAJAJAJAJAJAJAJAJAJAJAJAJAJAJAJAJAJAJAJAJAJAJAJAJAJAJAJAJAJAJAJAJAJAJAJAJAJAJAJAJAJAJAJAJAJAJAJAJAJAJAJAJAJAJAJAJAJAJAJAJAJAJAJAJAJAJAJAJAJAJAJAJ",
"AAAKAJAKAKAKAKAKAKAKAKAKAKAKAJAKAKAKAJAKAKAKAKAKAKAKAKAKAKAKAKAKAKAKAKAKAKAKAKAKAKAKAKAKAKAKAKAKAKAKAKAKAKAKAKAKAKAKAKAKAKAKAKAKAKAKAKAKAKAKAKAKAKAKAKAKAKAKAKAKAKAKAKAKAKAKAKAKAKAKAKAKAKAKAKAK",
"AAAKAKAKAKAKAKAKAKAKAKAKAKAKAKAKAKAKAKAKAKAKAKAKAKAKAKAKAKAKAKAKAKAKAKAKAKAKAKAKAKAKAKAKAKAKAKAKAKAKAKAKAKAKAKAKAKAKAKAKAKAKAKAKAKAKAKAKAKAKAKAKAKAKAKAKAKAKAKAKAKAKAKAKAKAKAKAKAKAKAKAKAKAKAKAK",
"AAAKALAKAKAKALAKAKAKALAKAKALAKALAKALAKALAKAKALAKAKALAKAKALAKAKALAKAKALAKAKALAKAKAKAKAKAKAKAKAKAKAKAKAKAKAKAKAKAKAKAKAKAKAKAKAKAKAKAKAKAKAKAKAKAKAKAKAKAKAKAKAKAKAKAKAKAKAKAKAKAKAKAKAKAKAKAKAKAK",
"AAALALALALALALALALALALALALALALALALALALALALALALALALALALALALALALALALALALALALALALALALALALALALALALALALALALALALALALALALALALALALALALALALALALALALALALALALALALALALALALALALALALALALALALALALALALALALALALAL",
"AAALALALALALALALALALALALALALALALALALALALALALALALALALALALALALALALALALALALALALALALALALAMALALALAMALALALAMALALALAMALALALAMALALALAMALALALAMALALALAMALALALAMALALALAMALALALAMALALALAMALALALAMALALALALAL",
"AAAMALAMAMAMALAMAMAMALAMAMALAMALAMALALAMALAMALAMAMALAMAMALAMAMALAMAMALAMAMALAMAMAMAMALAMAMAMALAMAMAMALAMAMAMALAMAMAMALAMAMAMALAMAMAMALAMAMAMALAMAMAMALAMAMAMALAMAMAMALAMAMAMALAMAMAMALAMAMAMAMAL",
"AAAMAMAMAMAMAMAMAMAMAMAMAMAMAMAMAMAMAMAMAMAMAMAMAMAMAMAMAMAMAMAMAMAMAMAMAMAMAMAMAMAMAMAMAMAMAMAMAMAMAMAMAMAMAMAMAMAMAMAMAMAMAMAMAMAMAMAMAMAMAMAMAMAMAMAMAMAMAMAMAMAMAMAMAMAMAMAMAMAMAMAMAMAMAMAM",
"AAAMANAMAMAMANAMAMAMAMAMAMANAMAMANAMANAMAMANAMANAMAMANAMAMANAMAMANAMAMANAMANAMAMAMAMANAMAMAMANAMAMAMANAMAMAMANAMAMAMANAMAMAMAMAMAMAMAMAMAMAMAMAMAMAMAMAMAMAMAMAMAMAMAMAMAMAMAMAMAMAMAMAMAMAMAMAM",
"AAANANANANANAMANANANANANANAMANANANAMANANANANAMANANANAMANANAMANANAMANANAMANANANANANANANANANANANANANANANANANANANANANANANANANANANANANANANANANANANANANANANANANANANANANANANANANANANANANANANANANANANAN",
"AAANANANANANAOANANANANANANAOANANANANANANANANAOANANANAOANANAOANANAOANANAOANANANANANANANANANANANANANANANANANANANANANANANANANANANANANANANANANANANANANANANANANANAOANAOANAOANAOANAOANAOANAOANAOANANAO",
"AAANAOANAOAOANAOANAOAOAOANAOAOANAOAOAOAOAOAOANAOAOAOANAOAOANAOAOANAOAOANAOAOAOAOAOAOAOAOAOAOAOAOAOAOAOAOAOAOAOAOAOAOAOAOAOAOAOAOAOAOAOAOAOAOAOAOAOAOAOAOAOANAOANAOANAOANAOANAOANAOANAOANAOANAOAN",
"AAAOAOAOAOAOAOAOAOAOAOAOAOAOAOAOAOAOAOAOAOAOAOAOAOAOAOAOAOAOAOAOAOAOAOAOAOAOAOAOAOAOAOAOAOAOAOAOAOAOAOAOAOAOAOAOAOAOAOAOAOAOAOAOAOAOAOAOAOAOAOAOAOAOAOAOAOAOAOAOAOAOAOAOAOAOAOAOAOAOAOAOAOAOAOAO",
"AAAOAPAOAPAOAPAOAPAOAPAOAPAOAPAOAPAOAOAOAOAPAOAOAPAOAPAOAPAOAPAOAPAOAPAOAPAOAOAPAOAOAPAOAOAPAOAOAPAOAOAPAOAOAPAOAOAPAOAOAOAOAOAOAOAOAOAOAOAOAOAOAOAOAOAOAPAOAOAPAOAOAPAOAOAPAOAOAPAOAOAPAOAPAOAP",
"AAAPAPAPAPAPAPAPAPAPAPAPAPAPAPAPAPAPAPAPAPAPAPAPAPAPAPAPAPAPAPAPAPAPAPAPAPAPAPAPAPAPAPAPAPAPAPAPAPAPAPAPAPAPAPAPAPAPAPAPAPAPAPAPAPAPAPAPAPAPAPAPAPAPAPAPAPAPAPAPAPAPAPAPAPAPAPAPAPAPAPAPAPAPAPAP",
"AAAPAPAPAPAPAPAPAPAPAPAPAPAPAPAPAPAPAPAQAPAPAPAPAPAPAPAPAPAPAPAPAPAPAPAPAPAPAPAPAPAPAPAPAPAPAPAPAPAPAPAPAPAPAPAPAPAPAPAPAPAQAPAPAQAPAPAQAPAPAQAPAPAQAPAPAPAPAPAPAPAPAPAPAPAPAPAPAPAPAPAPAPAPAPAP",
"AAAQAQAQAQAQAQAQAQAQAQAQAQAQAQAQAQAQAQAPAQAQAQAQAQAQAQAPAQAQAPAQAQAPAQAQAQAQAQAQAQAQAQAQAQAQAQAQAQAQAQAQAQAQAQAQAQAQAQAQAPAQAQAPAQAQAPAQAQAPAQAQAPAQAQAQAQAQAQAQAQAQAQAQAQAQAQAQAQAQAQAQAQAQAPAQ",
"AAAQAQAQAQAQAQAQAQAQAQAQAQAQAQAQAQAQAQAQAQAQAQAQAQAQAQAQAQAQAQAQAQAQAQAQAQAQAQAQAQAQAQAQAQAQAQAQAQAQAQAQAQAQAQAQAQAQAQAQAQAQAQAQAQAQAQAQAQAQAQAQAQAQAQAQAQAQAQAQAQAQAQAQAQAQAQAQAQAQAQAQAQAQAQAQ",
"AAAQARAQARAQARARAQARAQARAQARAQARAQARAQARAQARAQARAQARAQARAQARAQARAQARAQARAQARAQAQAQAQAQAQAQAQAQAQAQAQAQAQAQAQAQAQAQAQAQARAQAQARAQARAQARAQARAQARAQARAQAQAQAQAQAQAQAQAQAQAQAQAQAQAQAQAQAQAQAQARAQAQ",
"AAARARARARARARARARARARARARARARARARARARARARARARARARARARARARARARARARARARARARARARARARARARARARARARARARARARARARARARARARARARARARARARARARARARARARARARARARARARARARARARARARARARARARARARARARARARARARARARAR",
"AAARARARARARARARARARARARARARARARARARARARARARARARARARARARARARARARARARARARARARARASARASARASARASARASARASARASARASARASARASARARASARARARARARARARARARARARARASARASARASARASARASARASARASARASARASARARARARARAR",
"AAASASASASASASASASASASASASASASASASASASASASASASASASASASASASASASASASASASASASASASASARASASARASASASARASASASARASASASARASASASASARASASASASASASASASASASASASARASASARASASARASASARASASARASASARASASASASASASAS",
"AAASASASASASASATASASASASATASASASASASASATASASASASASASASASASASASASASASASASASASASASASASASASASASASASASASASASASASASASASASASASASASASASASASASASASASASASASASASASASASASASASASASASASASASASASASASASASASASAS",
"AAATATATATATATASATATATATASATATATATATATASATATATATATATATATATATATATATATATATATATATATATATATATATATATATATATATATATATATATATASATATATATATATATATATATATATATATATATATATATATATATATATATATATATATATATATATATATATASAT",
"AAATATATATATATATATATATATATATATATATATATATATATATATATATATATATATATATATATATATATATATATATATATATATATATATATATATATATATATATATATATATATATATATATATATATATATATATATATATATATATATATATATATATATATATATATATATATATATATAT",
"AAATAUATAUATAUATAUATAUATAUATAUATAUATAUATAUATATAUATATAUATATAUATATAUATATAUATATAUATATATAUATATATAUATATATAUATATATAUATATAUATATAUATATATAUATATATAUATATATAUATATATAUATATATAUATATATAUATATATAUATATATAUATAUAT",
"AAAUAUAUAUAUAUAUAUAUAUAUAUAUAUAUAUAUAUAUAUAUAUAUAUAUAUAUAUAUAUAUAUAUAUAUAUAUAUAUAUAUAUAUAUAUAUAUAUAUAUAUAUAUAUAUAUAUAUAUAUAUAUAUAUAUAUAUAUAUAUAUAUAUAUAUAUAUAUAUAUAUAUAUAUAUAUAUAUAUAUAUAUAUAUAU",
"AAAUAUAUAUAUAUAVAUAUAUAUAUAUAUAUAUAUAUAUAUAUAUAUAUAUAUAUAUAUAUAUAUAUAUAUAUAUAUAUAUAUAUAUAUAUAUAUAUAUAUAUAUAUAUAUAUAUAUAUAUAUAUAUAUAUAUAUAUAUAUAUAUAUAUAUAUAUAUAUAUAUAUAUAUAUAUAUAUAUAUAUAUAUAUAU",
"AAAVAVAVAVAVAVAVAVAVAVAVAVAVAVAVAVAVAVAVAVAVAVAVAVAVAVAVAVAVAVAVAVAVAVAVAVAVAVAVAVAVAVAVAVAVAVAVAVAVAVAVAVAVAVAVAVAVAVAVAVAVAVAVAVAVAVAVAVAVAVAVAVAVAVAVAVAVAVAVAVAVAVAVAVAVAVAVAVAVAVAVAVAVAVAV",
"AAAVAVAVAVAVAVAVAVAVAVAVAVAVAVAVAVAVAVAVAVAVAVAVAVAVAVAVAVAVAVAVAVAVAVAVAVAVAVAVAVAVAVAVAVAVAVAVAVAVAVAVAVAVAVAVAVAVAVAVAVAVAVAVAVAVAVAVAVAVAVAVAVAVAVAVAVAVAVAVAVAVAVAVAVAVAVAVAVAVAVAVAVAVAVAV",
"AAAWAWAWAWAWAWAWAWAWAWAWAWAWAWAWAWAWAWAWAWAWAWAWAWAWAWAWAWAWAWAWAWAWAWAWAWAWAWAWAWAWAWAWAWAWAWAWAWAWAWAWAWAWAWAWAWAWAWAWAWAWAWAWAWAWAWAWAWAWAWAWAWAWAWAWAWAWAWAWAWAWAWAWAWAWAWAWAWAWAWAWAWAWAWAV",
"AAAWAWAWAWAWAWAWAWAWAWAWAWAWAWAWAWAWAWAWAWAWAWAWAWAWAWAWAWAWAWAWAWAWAWAWAWAWAWAWAWAWAWAWAWAWAWAWAWAWAWAWAWAWAWAWAWAWAWAWAWAWAWAWAWAWAWAWAWAWAWAWAWAWAWAWAWAWAWAWAWAWAWAWAWAWAWAWAWAWAWAWAWAWAWAW",
"AAAWAWAWAWAWAWAXAWAWAWAWAWAWAWAWAWAWAWAWAWAWAWAWAWAWAWAWAWAWAWAWAWAWAWAWAWAWAXAWAWAXAWAWAXAWAWAXAWAWAXAWAWAXAWAWAXAWAWAXAWAWAXAWAWAXAWAWAXAWAWAXAWAWAXAWAWAXAWAWAXAWAWAXAWAWAXAWAWAXAWAWAXAWAWAW",
"AAAXAXAXAXAXAXAXAXAXAXAXAXAXAXAXAXAXAXAXAXAXAXAXAXAXAXAXAXAXAXAXAXAXAXAXAXAXAXAXAXAWAXAXAWAXAXAWAXAXAWAXAXAWAXAXAWAXAXAWAXAXAWAXAXAWAXAXAWAXAXAWAXAXAWAXAXAWAXAXAWAXAXAWAXAXAWAXAXAWAXAXAWAXAXAX",
"AAAXAXAXAXAXAXAXAXAXAXAXAXAXAXAXAXAXAXAXAXAXAXAXAXAXAXAXAXAXAXAXAXAXAXAXAXAXAXAXAXAXAXAXAYAXAXAYAXAXAYAXAXAYAXAXAYAXAXAYAXAXAYAXAXAYAXAXAYAXAXAYAXAXAYAXAXAYAXAXAYAXAXAYAXAXAYAXAXAYAXAXAYAXAXAX",
"AAAYAXAYAXAYAXAYAXAYAXAYAXAYAXAYAXAYAXAYAXAYAXAYAXAYAXAYAXAYAXAYAXAYAXAYAXAYAXAYAXAYAXAYAXAXAYAXAXAYAXAXAYAXAXAYAXAXAYAXAXAYAXAXAYAXAXAYAXAXAYAXAXAYAXAXAYAXAXAYAXAXAYAXAXAYAXAXAYAXAXAYAXAXAYAX",
"AAAYAYAYAYAYAYAYAYAYAYAYAYAYAYAYAYAYAYAYAYAYAYAYAYAYAYAYAYAYAYAYAYAYAYAYAYAYAYAYAYAYAYAYAYAYAYAYAYAYAYAYAYAYAYAYAYAYAYAYAYAYAYAYAYAYAYAYAYAYAYAYAYAYAYAYAYAYAYAYAYAYAYAYAYAYAYAYAYAYAYAYAYAYAYAY",
"AAAYAZAYAZAZAYAZAZAYAZAYAZAZAYAZAYAZAYAZAZAYAZAZAZAYAZAZAYAZAZAZAZAZAZAZAZAZAZAYAZAZAYAZAYAZAZAYAZAZAYAZAZAYAZAZAYAZAZAYAZAZAYAZAZAYAZAZAYAZAZAYAZAZAYAZAZAYAZAZAYAZAZAYAZAZAYAZAZAYAZAZAYAZAZAZ",
"AAAZAZAZAZAZAZAZAZAZAZAZAZAZAZAZAZAZAZAZAZAZAZAZAZAZAZAZAZAZAZAZAZAZAZAZAZAZAZAZAZAZAZAZAZAZAZAZAZAZAZAZAZAZAZAZAZAZAZAZAZAZAZAZAZAZAZAZAZAZAZAZAZAZAZAZAZAZAZAZAZAZAZAZAZAZAZAZAZAZAZAZAZAZAYAZ",
"AAAZBAAZAZAZAZAZAZAZAZAZAZAZAZAZAZAZAZAZAZAZAZAZAZAZAZAZAZAZAZAZAZAZAZAZAZAZAZAZAZAZAZAZAZAZAZAZAZAZAZAZAZAZAZAZAZAZAZAZAZAZAZAZAZAZAZAZAZAZAZAZAZAZAZAZAZAZAZAZAZAZAZAZAZAZAZAZAZAZAZAZAZAZAZAZ",
"AABAAZBABABABABABABABABABABABABABABABABABABABABABABABABABABABABABABABABABABABABABABABABABABABABABABABABABABABABABABABABABABABABABABABABABABABABABABABABABABABABABABABABABABABABABABABABABABABABA",
"AABABABABABABABABABABABABABABABABABABABABABABABABABABABABABABABABABABABABABABABABABABABABABABABABABABABABABABABABABABABABABABABABABABABABABABABABABABABABABABABABABABABABABABABABABABABABABABABA",
"AABABBBABBBABBBABBBABBBABBBABBBABBBABBBABBBABBBABBBABBBABBBABBBABBBABBBABBBABABBBABABBBABABBBABABBBABABBBABABBBABABBBABABABABABABABABABABABABABABABABABABABABABABABABABABABABABABABABABABABABABA",
"AABBBABBBABBBBBBBBBBBABBBBBBBABBBBBABBBABBBBBABBBABBBABBBABBBABBBABBBABBBABBBBBABBBBBABBBBBABBBBBABBBBBABBBBBABBBBBABBBBBBBBBBBBBBBBBBBBBBBBBBBBBBBBBBBBBBBBBBBBBBBBBBBBBBBBBBBBBBBBBBBBBBBBBBBA",
"AABBBBBBBBBBBBBBBBBBBBBBBBBBBBBBBBBBBBBBBBBBBBBBBBBBBBBBBBBBBBBBBBBBBBBBBBBBBBBBBBBBBBBBBBBBBBBBBBBBBBBBBBBBBBBBBBBBBBBBBBBBBBBBBBBBBBBBBBBBBBBBBBBBBBBBBBBBBBBBBBBBBBBBBBBBBBBBBBBBBBBBBBBBBBBB",
"AABCBBBCBCBBBCBBBBBCBBBCBBBCBBBCBBBCBBBCBBBCBBBCBCBBBCBCBBBCBBBCBBBCBBBCBCBBBCBBBCBBBCBBBCBBBCBBBCBBBCBBBCBBBCBBBCBBBBBBBBBBBBBBBBBBBBBBBBBBBBBBBBBBBBBBBBBBBBBBBBBBBBBBBBBBBBBBBBBBBBBBBBBBBBBC",
"AABCBCBCBCBCBCBCBCBCBCBCBCBCBCBCBCBCBCBCBCBCBCBCBCBCBCBCBCBCBCBCBCBCBCBCBCBCBCBCBCBCBCBCBCBCBCBCBCBCBCBCBCBCBCBCBCBCBCBCBCBCBCBCBCBCBCBCBCBCBCBCBCBCBCBCBCBCBCBCBCBCBCBCBCBCBCBCBCBCBCBCBCBCBCBC",
"AABCBCBCBCBCBCBCBDBCBCBCBCBCBCBCBCBCBCBCBCBCBCBCBCBCBCBCBCBCBCBCBCBCBCBCBCBCBCBCBCBCBCBCBCBCBCBCBCBCBCBCBCBCBCBCBCBDBCBDBCBDBCBDBCBDBCBDBCBDBCBDBCBDBCBDBCBDBCBDBCBDBCBDBCBDBCBDBCBDBCBDBCBCBDBC",
"AABDBDBDBDBDBDBDBCBDBDBDBDBDBDBDBDBDBDBDBDBDBDBDBDBDBDBDBDBDBDBDBDBDBDBDBDBDBDBDBDBDBDBDBDBDBDBDBDBDBDBDBDBDBDBDBDBDBDBDBDBDBDBDBDBDBDBDBDBDBDBDBDBDBDBDBDBDBDBDBDBDBDBDBDBDBDBDBDBDBDBDBDBDBDBD",
"AABDBDBDBDBDBDBDBEBDBDBDBDBDBDBDBDBDBDBDBDBDBDBDBDBDBDBDBDBDBDBDBDBDBDBDBDBDBDBDBDBDBDBDBDBDBDBDBDBDBDBDBDBDBDBDBDBDBDBDBDBDBDBDBDBDBDBDBDBDBDBDBDBDBDBDBDBDBDBDBDBDBDBDBDBDBDBDBDBDBDBDBDBDBDBD",
"AABEBEBEBEBEBEBEBDBEBDBEBEBDBEBEBEBEBEBEBEBDBEBDBEBDBEBDBEBDBEBDBEBEBDBEBEBDBEBEBEBEBEBEBEBEBEBEBEBEBEBEBEBEBEBEBEBDBEBDBEBDBEBDBEBDBEBDBEBDBEBDBEBDBEBDBEBDBEBDBEBDBEBDBEBDBEBDBEBDBEBDBEBEBEBE",
"AABEBEBEBEBEBEBEBEBEBEBEBEBEBEBEBEBEBEBEBEBEBEBEBEBEBEBEBEBEBEBEBEBEBEBEBEBEBEBEBEBEBEBEBEBEBEBEBEBEBEBEBEBEBEBEBEBEBEBEBEBEBEBEBEBEBEBEBEBEBEBEBEBEBEBEBEBEBEBEBEBEBEBEBEBEBEBEBEBEBEBEBEBEBEBE",
"AABFBEBFBEBFBFBEBFBFBFBEBFBFBFBEBFBEBFBFBEBFBFBEBFBFBFBEBFBFBFBEBFBFBEBFBEBFBEBFBEBFBEBFBEBFBEBFBEBFBEBFBEBFBEBFBFBEBFBFBFBFBFBFBFBFBFBFBFBFBFBFBFBFBFBFBFBFBFBFBFBFBFBFBFBFBFBFBFBFBFBFBEBFBEBF",
"AABFBFBFBFBFBFBFBFBEBFBFBEBFBEBFBFBFBEBFBFBEBFBFBEBFBEBFBEBFBEBFBEBFBFBEBFBFBFBEBFBFBFBEBFBFBFBEBFBFBFBEBFBFBFBEBFBFBEBFBEBFBEBFBEBFBEBFBEBFBEBFBEBFBEBFBEBFBEBFBEBFBEBFBEBFBEBFBEBFBEBFBFBFBFBF",
"XPMENDEXT"
};
